<svg width="6" height="25" viewBox="0 0 6 25" fill="none" xmlns="http://www.w3.org/2000/svg">
<path d="M5.71591 0.727272L5.27273 17.0227H1.11364L0.659091 0.727272H5.71591ZM3.19318 24.2955C2.44318 24.2955 1.79924 24.0303 1.26136 23.5C0.723485 22.9621 0.458333 22.3182 0.465909 21.5682C0.458333 20.8258 0.723485 20.1894 1.26136 19.6591C1.79924 19.1288 2.44318 18.8636 3.19318 18.8636C3.91288 18.8636 4.54545 19.1288 5.09091 19.6591C5.63636 20.1894 5.91288 20.8258 5.92045 21.5682C5.91288 22.0682 5.7803 22.5265 5.52273 22.9432C5.27273 23.3523 4.94318 23.6818 4.53409 23.9318C4.125 24.1742 3.67803 24.2955 3.19318 24.2955Z" fill="#FF0000"/>
</svg>
